# AST/ASF file generated using VICON BodyLanguage
# -----------------------------------------------
:version 1.10
:name VICON
:units
  mass 1.0
  length 0.1
  angle deg
:documentation
   .ast/.asf automatically generated from VICON data using
   VICON BodyBuilder and BodyLanguage model FULLBODY5.MOD
:root
   order TX TY TZ RZ RY RX
   axis XYZ
   position 0 0 0  
   orientation 0 -0 0 
:bonedata
  begin
     id 1 
     name lhipjoint
     direction 0.961525 -0.229516 0.150972 
     length 0.502153 
     axis 0 -0 0  XYZ
  end
  begin
     id 2 
     name lfemur
     direction 0.173648 -0.984808 0  
     length 1.83052  
     axis 0 -0 10  XYZ
    dof rx ry rz
    limits (-180.0 180.0)
           (-180.0 180.0)
           (-180.0 180.0)
  end
  begin
     id 3 
     name ltibia
     direction 0.173629 -0.984811 0   
     length 1.50296   
     axis 0 -0 10   XYZ
    dof rx ry rz
    limits (-180.0 180.0)
           (-180.0 180.0)
           (-180.0 180.0)
  end
  begin
     id 4 
     name lfoot
     direction 7.59329e-012 -0.227408 0.9738   
     length 0.574743   
     axis -90 -1.73656e-015 10   XYZ
    dof rx ry rz
    limits (-180.0 180.0)
           (-180.0 180.0)
           (-180.0 180.0)
  end
  begin
     id 5 
     name ltoes
     direction 7.79885e-012 -4.41741e-011 1   
     length 0.28489   
     axis -90 -1.73656e-015 10   XYZ
    dof rx ry rz
    limits (-180.0 180.0)
           (-180.0 180.0)
           (-180.0 180.0)
  end
  begin
     id 6 
     name rhipjoint
     direction -0.970498 -0.201437 0.132502   
     length 0.572149  
     axis 0 -0 0  XYZ 
  end
  begin
     id 7 
     name rfemur
     direction -0.173648 -0.984808 0   
     length 1.71866   
     axis 0 -0 -10   XYZ
    dof rx ry rz
    limits (-180.0 180.0)
           (-180.0 180.0)
           (-180.0 180.0)
  end
  begin
     id 8 
     name rtibia
     direction -0.173624 -0.984812 0   
     length 1.42623   
     axis 0 -0 -10   XYZ
    dof rx ry rz
    limits (-180.0 180.0)
           (-180.0 180.0)
           (-180.0 180.0)
 end
 begin
     id 9 
     name rfoot
     direction -7.12931e-012 -0.404275 0.914637   
     length 0.524692  
     axis -90 1.73656e-015 -10   XYZ
    dof rx ry rz
    limits (-180.0 180.0)
           (-180.0 180.0)
           (-180.0 180.0)
  end
  begin
     id 10 
     name rtoes
     direction -7.79289e-012 -4.41454e-011 1   
     length 0.254983   
     axis -90 1.73656e-015 -10   XYZ
    dof rx ry rz
    limits (-180.0 180.0)
           (-180.0 180.0)
           (-180.0 180.0)
  end
  begin
     id 11 
     name lowerback
     direction -0.0214086 0.993738 0.109665   
     length 0.417614   
     axis 0 -0 0   XYZ
    dof rx ry rz
    limits (-180.0 180.0)
           (-180.0 180.0)
           (-180.0 180.0)
  end
  begin
     id 12 
     name upperback
     direction 8.15962e-005 0.99996 0.00893412   
     length 0.419234   
     axis 0 -0 0   XYZ
    dof rx ry rz
    limits (-180.0 180.0)
           (-180.0 180.0)
           (-180.0 180.0)
  end
  begin
     id 13 
     name thorax
     direction 0.00826031 0.999067 -0.0423848   
     length 0.424697   
     axis 0 -0 0   XYZ
    dof rx ry rz
    limits (-180.0 180.0)
           (-180.0 180.0)
           (-180.0 180.0)
  end
  begin
     id 14 
     name lowerneck
     direction -0.0196262 0.994272 -0.105058   
     length 0.355877   
     axis 0 -0 0   XYZ
    dof rx ry rz
    limits (-180.0 180.0)
           (-180.0 180.0)
           (-180.0 180.0)
  end
  begin
     id 15 
     name upperneck
     direction 0.000117372 0.999091 0.0426261   
     length 0.351054   
     axis 0 -0 0   XYZ
    dof rx ry rz
    limits (-180.0 180.0)
           (-180.0 180.0)
           (-180.0 180.0)
  end
  begin
     id 16
     name head
     direction 0.00157618 0.999651 0.0263619  
     length 0.374844  
     axis 0 -0 0   XYZ
    dof rx ry rz
    limits (-180.0 180.0)
           (-180.0 180.0)
           (-180.0 180.0)
  end
  begin
     id 17 
     name lshoulderjoint
     direction 0.981627 -0.190809 0  
     length 0.701763  
     axis 0 -0 -11   XYZ
    dof rx ry rz
    limits (-180.0 180.0)
           (-180.0 180.0)
           (-180.0 180.0)
  end
  begin
     id 18 
     name lhumerus
     direction 0.48481 -0.87462 -1.80676e-026   
     length 0.994704   
     axis -180 5.14477e-009 -151   XYZ
    dof rx ry rz
    limits (-180.0 180.0)
           (-180.0 180.0)
           (-180.0 180.0)
  end
  begin
     id 19
     name lradius
     direction 0.48481 -0.87462 -3.2569e-026   
     length 0.617638   
     axis -180 5.14477e-009 -151   XYZ
    dof rx ry rz
    limits (-180.0 180.0)
           (-180.0 180.0)
           (-180.0 180.0)
  end
  begin
     id 20
     name lwrist
     direction 0.48481 -0.87462 -6.73202e-026   
     length 0.308819   
     axis -180 5.14477e-009 -151   XYZ
    dof rx ry rz
    limits (-180.0 180.0)
           (-180.0 180.0)
           (-180.0 180.0)
  end
  begin
     id 21 
     name lhand
     direction 0.478366 -0.863761 -0.158376   
     length 0.291656   
     axis -180 5.14477e-009 -151   XYZ
    dof rx ry rz
    limits (-180.0 180.0)
           (-180.0 180.0)
           (-180.0 180.0)
  end
  begin
     id 22 
     name rshoulderjoint
     direction -0.981627 -0.190809 0   
     length 0.66654  
     axis 0 -0 11   XYZ 
    dof rx ry rz
    limits (-180.0 180.0)
           (-180.0 180.0)
           (-180.0 180.0)
  end
  begin
     id 23 
     name rhumerus
     direction -0.48481 -0.87462 1.77576e-026  
     length 1.15089   
     axis 180 5.14477e-009 151   XYZ
    dof rx ry rz
    limits (-180.0 180.0)
           (-180.0 180.0)
           (-180.0 180.0)
  end
  begin
     id 24 
     name rradius
     direction -0.48481 -0.87462 3.79421e-026   
     length 0.613887   
     axis 180 5.14477e-009 151   XYZ
    dof rx ry rz
    limits (-180.0 180.0)
           (-180.0 180.0)
           (-180.0 180.0)
  end
  begin
     id 25 
     name rwrist
     direction -0.48481 -0.87462 5.43623e-026   
     length 0.306944   
     axis 180 5.14477e-009 151   XYZ
    dof rx ry rz
    limits (-180.0 180.0)
           (-180.0 180.0)
           (-180.0 180.0)
  end
  begin
     id 26
     name rhand
     direction -0.479273 -0.864638 -0.150661   
     length 0.306429   
     axis 180 5.14477e-009 151   XYZ
    dof rx ry rz
    limits (-180.0 180.0)
           (-180.0 180.0)
           (-180.0 180.0)
  end
:hierarchy
  begin
    root lhipjoint rhipjoint lowerback 
    lhipjoint lfemur
    lfemur ltibia
    ltibia lfoot
    lfoot ltoes
    rhipjoint rfemur
    rfemur rtibia
    rtibia rfoot
    rfoot rtoes
    lowerback upperback
    upperback thorax
    thorax lowerneck lshoulderjoint rshoulderjoint
    lowerneck upperneck
    upperneck head
    lshoulderjoint lhumerus
    lhumerus lradius
    lradius lwrist
    lwrist lhand
    rshoulderjoint rhumerus
    rhumerus rradius
    rradius rwrist
    rwrist rhand
  end

:FULLY-SPECIFIED
:DEGREES
404
root 6.60346 3.60285 -0.300434 88.3496 -73.4091 85.287
lowerback -16.5196 -1.11602 -4.51311
upperback -3.50118 -0.873746 -0.162558
thorax 5.57004 -0.571556 2.19502
lowerneck 15.3951 1.5548 -2.30025
upperneck -2.2119 1.48228 -0.893084
head -3.4718 0.766539 0.000798312
rshoulderjoint 2.13318 -3.87155 -39.8839
rhumerus -0.876206 -55.6976 -38.3759
rradius 47.5289 -1.46306e-013 -4.45278e-014
rwrist 3.15753e-013 13.5813 8.50733e-014
rhand 11.3282 -11.0227 35.9272
lshoulderjoint 4.95869 12.3541 33.0736
lhumerus 26.1916 54.345 52.0628
lradius 34.1864 1.52667e-013 1.74931e-014
lwrist 1.14931e-013 -4.96549 -1.30894e-013
lhand 28.9022 4.86691 -7.10617
rfemur -11.3641 -0.118863 10.7615
rtibia 3.02153e-014 2.73329e-016 -3.18055e-015
rfoot -3.96705 15.5408 -12.7115
rtoes -5.40694e-014 -1.07443e-013 2.70347e-014
lfemur -11.5513 -7.47681 -18.3828
ltibia 1.59028e-014 9.54166e-015 1.11319e-014
lfoot -6.39754 -3.09712 11.0575
ltoes -3.89618e-014 -5.41688e-015 -3.4191e-014
405
root 6.60417 3.60143 -0.302366 88.7102 -73.3434 85.5229
lowerback -16.6773 -1.11132 -4.55807
upperback -3.5538 -0.855623 -0.193778
thorax 5.59751 -0.564958 2.18976
lowerneck 15.2467 1.58337 -2.55548
upperneck -2.18751 1.49185 -0.709982
head -3.43904 0.765721 0.107695
rshoulderjoint 2.12818 -3.88937 -39.7162
rhumerus -1.55802 -54.9914 -38.8156
rradius 47.3091 9.85972e-014 6.36111e-015
rwrist -2.30176e-013 13.0527 -7.83579e-014
rhand 10.6966 -10.5026 36.3059
lshoulderjoint 4.8742 12.5341 32.452
lhumerus 24.7246 53.5198 51.2048
lradius 33.9133 -9.54166e-015 4.92986e-014
lwrist -1.32525e-013 -5.13439 7.34475e-014
lhand 28.6081 5.14091 -7.57407
rfemur -11.3819 -0.0500075 10.6882
rtibia -1.11319e-014 -3.60297e-015 3.97569e-015
rfoot -4.87232 15.5544 -12.8802
rtoes -9.54166e-015 1.77912e-014 -6.52014e-014
lfemur -11.6227 -7.42122 -18.4725
ltibia -2.22639e-014 -6.36111e-015 -1.11319e-014
lfoot -6.4405 -3.02655 11.0442
ltoes 4.4329e-014 3.60794e-014 5.96354e-014
406
root 6.60501 3.60015 -0.304319 89.1864 -73.3002 85.8449
lowerback -16.8731 -1.07797 -4.66916
upperback -3.57348 -0.781956 -0.2586
thorax 5.67685 -0.533179 2.19758
lowerneck 15.147 1.53776 -2.60721
upperneck -2.18695 1.43193 -0.635158
head -3.42026 0.733674 0.147054
rshoulderjoint 2.13284 -3.94996 -39.3975
rhumerus -2.22226 -54.2427 -39.2077
rradius 47.0731 -3.05333e-013 3.59403e-013
rwrist -6.69683e-013 12.5806 1.0917e-012
rhand 10.0922 -10.0454 36.7286
lshoulderjoint 4.77481 12.5739 31.9915
lhumerus 23.515 52.9119 50.9403
lradius 33.6516 2.79889e-013 -3.33958e-013
lwrist -9.59076e-013 -5.30938 -9.48695e-013
lhand 28.3657 5.13353 -7.90192
rfemur -11.3968 0.0423184 10.5735
rtibia -7.95139e-016 2.85753e-016 1.03368e-014
rfoot -5.57437 15.5339 -13.0282
rtoes -7.95139e-015 1.87255e-013 -1.44715e-013
lfemur -11.6747 -7.33634 -18.5956
ltibia 3.97569e-015 -1.59028e-014 -2.3059e-014
lfoot -6.49156 -2.93655 11.0219
ltoes 6.02318e-014 3.83654e-014 6.91771e-014
407
root 6.60587 3.59884 -0.306407 89.7532 -73.238 86.2493
lowerback -17.0637 -1.04311 -4.74958
upperback -3.56129 -0.70867 -0.327693
thorax 5.78712 -0.501697 2.18352
lowerneck 14.8659 1.50725 -2.71459
upperneck -2.14221 1.39095 -0.546244
head -3.35172 0.710787 0.200557
rshoulderjoint 2.1685 -4.08499 -38.9929
rhumerus -2.68909 -53.3921 -39.751
rradius 46.8217 1.52667e-013 2.40132e-013
rwrist -5.7122e-013 12.2628 2.37602e-013
rhand 9.55459 -9.70417 37.1574
lshoulderjoint 4.69097 12.6888 31.484
lhumerus 22.1719 52.0199 50.4233
lradius 33.3537 -9.54166e-014 -1.41535e-013
lwrist -6.19825e-013 -5.44545 -1.94893e-013
lhand 28.0376 5.45536 -8.24368
rfemur -11.443 0.156473 10.4369
rtibia 1.59028e-014 -1.6027e-015 9.54166e-015
rfoot -5.8776 15.607 -13.0575
rtoes 1.74931e-014 -4.27387e-015 -3.33958e-014
lfemur -11.7422 -7.22994 -18.7259
ltibia 3.33958e-014 7.95139e-016 3.97569e-015
lfoot -6.53883 -2.83361 11.0072
ltoes -1.86858e-014 -2.20403e-014 -4.77083e-015
408
root 6.60679 3.59781 -0.308407 90.4035 -73.2113 86.7704
lowerback -17.2014 -0.982097 -4.77032
upperback -3.55226 -0.614627 -0.382165
thorax 5.86367 -0.458282 2.15656
lowerneck 14.7056 1.4848 -2.85838
upperneck -2.19521 1.34868 -0.469445
head -3.34132 0.689729 0.255466
rshoulderjoint 2.17031 -4.16093 -38.5781
rhumerus -3.30887 -52.5125 -40.1363
rradius 46.5381 3.91208e-013 4.92986e-014
rwrist -5.73796e-013 11.9466 -3.73861e-013
rhand 9.11228 -9.38461 37.5505
lshoulderjoint 4.61557 12.7984 31.0238
lhumerus 20.9369 51.1971 50.1833
lradius 33.0011 -1.43125e-013 3.06924e-013
lwrist -8.68181e-013 -5.40868 5.8145e-013
lhand 27.8306 5.54288 -8.5692
rfemur -11.4801 0.30137 10.3142
rtibia 3.26007e-014 -3.72721e-015 -7.95139e-016
rfoot -5.96048 15.6322 -13.0665
rtoes -1.8646e-013 -9.54166e-015 1.46306e-013
lfemur -11.7764 -7.08368 -18.8314
ltibia 3.10104e-014 2.38542e-014 7.95139e-015
lfoot -6.59408 -2.74353 10.9844
ltoes -2.36156e-013 -6.95746e-016 -4.53229e-014
409
root 6.6076 3.5969 -0.3102 91.1448 -73.1905 87.3538
lowerback -17.3587 -0.922145 -4.81487
upperback -3.53304 -0.516399 -0.427719
thorax 5.96175 -0.41381 2.15365
lowerneck 14.5412 1.47254 -3.02099
upperneck -2.2139 1.3147 -0.42168
head -3.31798 0.673571 0.303497
rshoulderjoint 2.16258 -4.20726 -38.2357
rhumerus -3.93164 -51.5293 -40.5596
rradius 46.2033 1.27222e-014 2.22639e-014
rwrist -3.57205e-014 11.6381 1.29893e-014
rhand 8.74861 -9.08498 37.9262
lshoulderjoint 4.5603 12.9138 30.6412
lhumerus 20.0163 50.6535 50.4544
lradius 32.6026 -7.95139e-014 -1.11319e-013
lwrist 1.57407e-013 -5.65136 -7.67061e-014
lhand 27.6891 5.62344 -8.86491
rfemur -11.5083 0.462162 10.1504
rtibia -8.74653e-015 -6.95746e-016 7.15625e-015
rfoot -5.87937 15.5703 -13.0626
rtoes 7.95139e-015 -3.96575e-014 -3.65764e-014
lfemur -11.7996 -6.91987 -18.9771
ltibia -1.27222e-014 -7.95139e-016 1.43125e-014
lfoot -6.65069 -2.70003 10.9712
ltoes 1.03368e-014 -4.42047e-014 -7.15625e-015
410
root 6.60878 3.59635 -0.311842 91.9258 -73.156 88.0096
lowerback -17.4956 -0.821261 -4.7828
upperback -3.48846 -0.374413 -0.511188
thorax 6.07254 -0.346632 2.07698
lowerneck 14.2329 1.41728 -3.08136
upperneck -2.18485 1.24832 -0.389503
head -3.2484 0.640593 0.331037
rshoulderjoint 2.19348 -4.36166 -37.7314
rhumerus -4.41897 -50.3738 -40.9833
rradius 45.7845 2.3218e-013 2.21049e-013
rwrist -6.426e-013 11.4775 1.16836e-013
rhand 8.3616 -8.96335 38.3084
lshoulderjoint 4.50041 13.0338 30.239
lhumerus 19.305 50.1295 50.8508
lradius 32.186 -2.41722e-013 -9.54166e-014
lwrist -4.7958e-013 -5.84859 2.55776e-014
lhand 27.5853 5.60908 -9.20455
rfemur -11.5652 0.644587 10.0149
rtibia -3.97569e-014 -3.57191e-015 7.15625e-015
rfoot -5.7608 15.5343 -13.0383
rtoes 8.98507e-014 5.24792e-014 -6.52014e-014
lfemur -11.8422 -6.73723 -19.0958
ltibia -3.33958e-014 -1.03368e-014 1.59028e-015
lfoot -6.69292 -2.73034 10.949
ltoes 1.22054e-013 -2.85008e-014 -1.59028e-015
